<?xml version="1.0" encoding="UTF-8" standalone="no"?>
<!DOCTYPE svg PUBLIC "-//W3C//DTD SVG 1.1//EN"
 "http://www.w3.org/Graphics/SVG/1.1/DTD/svg11.dtd">
<!-- Generated by graphviz version 2.48.0 (20210717.1556)
 -->
<!-- Title: G Pages: 1 -->
<svg width="2897pt" height="211pt"
 viewBox="0.00 0.00 2897.00 211.00" xmlns="http://www.w3.org/2000/svg" xmlns:xlink="http://www.w3.org/1999/xlink">
<g id="graph0" class="graph" transform="scale(1 1) rotate(0) translate(4 207)">
<title>G</title>
<polygon fill="white" stroke="transparent" points="-4,4 -4,-207 2893,-207 2893,4 -4,4"/>
<text text-anchor="middle" x="1444.5" y="-7.8" font-family="Times New Roman,serif" font-size="14.00">Lista Estudiantes</text>
<!-- N_0 -->
<g id="node1" class="node">
<title>N_0</title>
<polygon fill="none" stroke="black" points="0,-23.5 0,-151.5 249,-151.5 249,-23.5 0,-23.5"/>
<text text-anchor="middle" x="124.5" y="-136.3" font-family="Times New Roman,serif" font-size="14.00">Carnet: 201700886</text>
<text text-anchor="middle" x="124.5" y="-121.3" font-family="Times New Roman,serif" font-size="14.00">Dpi: 3502451230508</text>
<text text-anchor="middle" x="124.5" y="-106.3" font-family="Times New Roman,serif" font-size="14.00">Nombre: Emilia Miramontes</text>
<text text-anchor="middle" x="124.5" y="-91.3" font-family="Times New Roman,serif" font-size="14.00">Carrera: Ingenieria en Ciencias y Sistemas</text>
<text text-anchor="middle" x="124.5" y="-76.3" font-family="Times New Roman,serif" font-size="14.00">Correo: nicols36@hotmail.com</text>
<text text-anchor="middle" x="124.5" y="-61.3" font-family="Times New Roman,serif" font-size="14.00">Password: roxodiciqi</text>
<text text-anchor="middle" x="124.5" y="-46.3" font-family="Times New Roman,serif" font-size="14.00">Creditos: 205</text>
<text text-anchor="middle" x="124.5" y="-31.3" font-family="Times New Roman,serif" font-size="14.00">Edad: 21</text>
</g>
<!-- N_1 -->
<g id="node2" class="node">
<title>N_1</title>
<polygon fill="none" stroke="black" points="285,-74.5 285,-202.5 519,-202.5 519,-74.5 285,-74.5"/>
<text text-anchor="middle" x="402" y="-187.3" font-family="Times New Roman,serif" font-size="14.00">Carnet: 201501786</text>
<text text-anchor="middle" x="402" y="-172.3" font-family="Times New Roman,serif" font-size="14.00">Dpi: 7249529279753</text>
<text text-anchor="middle" x="402" y="-157.3" font-family="Times New Roman,serif" font-size="14.00">Nombre: Juan Curiel</text>
<text text-anchor="middle" x="402" y="-142.3" font-family="Times New Roman,serif" font-size="14.00">Carrera: Ingenieria Industrial</text>
<text text-anchor="middle" x="402" y="-127.3" font-family="Times New Roman,serif" font-size="14.00">Correo: jernimo.caballero@yahoo.com</text>
<text text-anchor="middle" x="402" y="-112.3" font-family="Times New Roman,serif" font-size="14.00">Password: zanolexima</text>
<text text-anchor="middle" x="402" y="-97.3" font-family="Times New Roman,serif" font-size="14.00">Creditos: 245</text>
<text text-anchor="middle" x="402" y="-82.3" font-family="Times New Roman,serif" font-size="14.00">Edad: 24</text>
</g>
<!-- N_0&#45;&gt;N_1 -->
<g id="edge1" class="edge">
<title>N_0&#45;&gt;N_1</title>
<path fill="none" stroke="black" d="M249.15,-103.67C257.68,-105.21 266.29,-106.8 274.83,-108.42"/>
<polygon fill="black" stroke="black" points="274.35,-111.89 284.83,-110.32 275.66,-105.01 274.35,-111.89"/>
</g>
<!-- N_10 -->
<g id="node11" class="node">
<title>N_10</title>
<polygon fill="none" stroke="black" points="2640,-23.5 2640,-151.5 2889,-151.5 2889,-23.5 2640,-23.5"/>
<text text-anchor="middle" x="2764.5" y="-136.3" font-family="Times New Roman,serif" font-size="14.00">Carnet: 201801441</text>
<text text-anchor="middle" x="2764.5" y="-121.3" font-family="Times New Roman,serif" font-size="14.00">Dpi: 3275257541409</text>
<text text-anchor="middle" x="2764.5" y="-106.3" font-family="Times New Roman,serif" font-size="14.00">Nombre: Magdiel Asicona</text>
<text text-anchor="middle" x="2764.5" y="-91.3" font-family="Times New Roman,serif" font-size="14.00">Carrera: Ingenieria en Ciencias y Sistemas</text>
<text text-anchor="middle" x="2764.5" y="-76.3" font-family="Times New Roman,serif" font-size="14.00">Correo: magdielasicona@gmail.com</text>
<text text-anchor="middle" x="2764.5" y="-61.3" font-family="Times New Roman,serif" font-size="14.00">Password: magdieelas</text>
<text text-anchor="middle" x="2764.5" y="-46.3" font-family="Times New Roman,serif" font-size="14.00">Creditos: 123</text>
<text text-anchor="middle" x="2764.5" y="-31.3" font-family="Times New Roman,serif" font-size="14.00">Edad: 21</text>
</g>
<!-- N_0&#45;&gt;N_10 -->
<g id="edge21" class="edge">
<title>N_0&#45;&gt;N_10</title>
<path fill="none" stroke="black" d="M249.04,-59.83C261.17,-58.22 273.32,-56.76 285,-55.5 458,-36.85 501.5,-27.5 675.5,-27.5 675.5,-27.5 675.5,-27.5 2212.5,-27.5 2386.94,-27.5 2430.56,-36.82 2604,-55.5 2612.49,-56.41 2621.22,-57.44 2630.01,-58.55"/>
<polygon fill="black" stroke="black" points="2629.6,-62.02 2639.96,-59.83 2630.49,-55.08 2629.6,-62.02"/>
</g>
<!-- N_1&#45;&gt;N_0 -->
<g id="edge2" class="edge">
<title>N_1&#45;&gt;N_0</title>
<path fill="none" stroke="black" d="M284.83,-123.67C276.35,-122.16 267.76,-120.59 259.19,-119"/>
<polygon fill="black" stroke="black" points="259.62,-115.52 249.15,-117.11 258.33,-122.4 259.62,-115.52"/>
</g>
<!-- N_2 -->
<g id="node3" class="node">
<title>N_2</title>
<polygon fill="none" stroke="black" points="555,-74.5 555,-202.5 798,-202.5 798,-74.5 555,-74.5"/>
<text text-anchor="middle" x="676.5" y="-187.3" font-family="Times New Roman,serif" font-size="14.00">Carnet: 201822186</text>
<text text-anchor="middle" x="676.5" y="-172.3" font-family="Times New Roman,serif" font-size="14.00">Dpi: 9298434863898</text>
<text text-anchor="middle" x="676.5" y="-157.3" font-family="Times New Roman,serif" font-size="14.00">Nombre: Eloisa Rincon</text>
<text text-anchor="middle" x="676.5" y="-142.3" font-family="Times New Roman,serif" font-size="14.00">Carrera: Ingenieria Civil</text>
<text text-anchor="middle" x="676.5" y="-127.3" font-family="Times New Roman,serif" font-size="14.00">Correo: carolinaelizondo85@yahoo.com</text>
<text text-anchor="middle" x="676.5" y="-112.3" font-family="Times New Roman,serif" font-size="14.00">Password: toqelijanu</text>
<text text-anchor="middle" x="676.5" y="-97.3" font-family="Times New Roman,serif" font-size="14.00">Creditos: 95</text>
<text text-anchor="middle" x="676.5" y="-82.3" font-family="Times New Roman,serif" font-size="14.00">Edad: 19</text>
</g>
<!-- N_1&#45;&gt;N_2 -->
<g id="edge3" class="edge">
<title>N_1&#45;&gt;N_2</title>
<path fill="none" stroke="black" d="M519.35,-131.81C527.69,-131.76 536.12,-131.74 544.52,-131.75"/>
<polygon fill="black" stroke="black" points="544.74,-135.26 554.75,-131.79 544.76,-128.26 544.74,-135.26"/>
</g>
<!-- N_2&#45;&gt;N_1 -->
<g id="edge4" class="edge">
<title>N_2&#45;&gt;N_1</title>
<path fill="none" stroke="black" d="M554.75,-145.21C546.39,-145.25 537.95,-145.26 529.56,-145.23"/>
<polygon fill="black" stroke="black" points="529.37,-141.73 519.35,-145.19 529.34,-148.73 529.37,-141.73"/>
</g>
<!-- N_3 -->
<g id="node4" class="node">
<title>N_3</title>
<polygon fill="none" stroke="black" points="834,-74.5 834,-202.5 1034,-202.5 1034,-74.5 834,-74.5"/>
<text text-anchor="middle" x="934" y="-187.3" font-family="Times New Roman,serif" font-size="14.00">Carnet: 201901425</text>
<text text-anchor="middle" x="934" y="-172.3" font-family="Times New Roman,serif" font-size="14.00">Dpi: 4131766125532</text>
<text text-anchor="middle" x="934" y="-157.3" font-family="Times New Roman,serif" font-size="14.00">Nombre: Bernardo Hinojosa</text>
<text text-anchor="middle" x="934" y="-142.3" font-family="Times New Roman,serif" font-size="14.00">Carrera: Ingenieria Mecanica</text>
<text text-anchor="middle" x="934" y="-127.3" font-family="Times New Roman,serif" font-size="14.00">Correo: alfonso03@hotmail.com</text>
<text text-anchor="middle" x="934" y="-112.3" font-family="Times New Roman,serif" font-size="14.00">Password: wosopumano</text>
<text text-anchor="middle" x="934" y="-97.3" font-family="Times New Roman,serif" font-size="14.00">Creditos: 100</text>
<text text-anchor="middle" x="934" y="-82.3" font-family="Times New Roman,serif" font-size="14.00">Edad: 20</text>
</g>
<!-- N_2&#45;&gt;N_3 -->
<g id="edge5" class="edge">
<title>N_2&#45;&gt;N_3</title>
<path fill="none" stroke="black" d="M798.14,-131.76C806.59,-131.74 815.09,-131.75 823.47,-131.81"/>
<polygon fill="black" stroke="black" points="823.61,-135.31 833.64,-131.9 823.67,-128.31 823.61,-135.31"/>
</g>
<!-- N_3&#45;&gt;N_2 -->
<g id="edge6" class="edge">
<title>N_3&#45;&gt;N_2</title>
<path fill="none" stroke="black" d="M833.64,-145.1C825.27,-145.19 816.74,-145.24 808.18,-145.25"/>
<polygon fill="black" stroke="black" points="808.14,-141.75 798.14,-145.24 808.14,-148.75 808.14,-141.75"/>
</g>
<!-- N_4 -->
<g id="node5" class="node">
<title>N_4</title>
<polygon fill="none" stroke="black" points="1070,-74.5 1070,-202.5 1285,-202.5 1285,-74.5 1070,-74.5"/>
<text text-anchor="middle" x="1177.5" y="-187.3" font-family="Times New Roman,serif" font-size="14.00">Carnet: 201503186</text>
<text text-anchor="middle" x="1177.5" y="-172.3" font-family="Times New Roman,serif" font-size="14.00">Dpi: 8549191766348</text>
<text text-anchor="middle" x="1177.5" y="-157.3" font-family="Times New Roman,serif" font-size="14.00">Nombre: Manuel Manzanares</text>
<text text-anchor="middle" x="1177.5" y="-142.3" font-family="Times New Roman,serif" font-size="14.00">Carrera: Ingenieria Electrica</text>
<text text-anchor="middle" x="1177.5" y="-127.3" font-family="Times New Roman,serif" font-size="14.00">Correo: benitoarmas92@gmail.com</text>
<text text-anchor="middle" x="1177.5" y="-112.3" font-family="Times New Roman,serif" font-size="14.00">Password: rejumudore</text>
<text text-anchor="middle" x="1177.5" y="-97.3" font-family="Times New Roman,serif" font-size="14.00">Creditos: 226</text>
<text text-anchor="middle" x="1177.5" y="-82.3" font-family="Times New Roman,serif" font-size="14.00">Edad: 24</text>
</g>
<!-- N_3&#45;&gt;N_4 -->
<g id="edge7" class="edge">
<title>N_3&#45;&gt;N_4</title>
<path fill="none" stroke="black" d="M1034.27,-131.85C1042.6,-131.77 1051.06,-131.74 1059.5,-131.75"/>
<polygon fill="black" stroke="black" points="1059.76,-135.25 1069.77,-131.79 1059.79,-128.25 1059.76,-135.25"/>
</g>
<!-- N_4&#45;&gt;N_3 -->
<g id="edge8" class="edge">
<title>N_4&#45;&gt;N_3</title>
<path fill="none" stroke="black" d="M1069.77,-145.21C1061.38,-145.26 1052.9,-145.26 1044.49,-145.22"/>
<polygon fill="black" stroke="black" points="1044.3,-141.72 1034.27,-145.15 1044.25,-148.72 1044.3,-141.72"/>
</g>
<!-- N_5 -->
<g id="node6" class="node">
<title>N_5</title>
<polygon fill="none" stroke="black" points="1321,-74.5 1321,-202.5 1545,-202.5 1545,-74.5 1321,-74.5"/>
<text text-anchor="middle" x="1433" y="-187.3" font-family="Times New Roman,serif" font-size="14.00">Carnet: 201123146</text>
<text text-anchor="middle" x="1433" y="-172.3" font-family="Times New Roman,serif" font-size="14.00">Dpi: 9616636196552</text>
<text text-anchor="middle" x="1433" y="-157.3" font-family="Times New Roman,serif" font-size="14.00">Nombre: Julia Corona</text>
<text text-anchor="middle" x="1433" y="-142.3" font-family="Times New Roman,serif" font-size="14.00">Carrera: Ingenieria Electronica</text>
<text text-anchor="middle" x="1433" y="-127.3" font-family="Times New Roman,serif" font-size="14.00">Correo: ngela.solorio86@yahoo.com</text>
<text text-anchor="middle" x="1433" y="-112.3" font-family="Times New Roman,serif" font-size="14.00">Password: xojobavuji</text>
<text text-anchor="middle" x="1433" y="-97.3" font-family="Times New Roman,serif" font-size="14.00">Creditos: 237</text>
<text text-anchor="middle" x="1433" y="-82.3" font-family="Times New Roman,serif" font-size="14.00">Edad: 26</text>
</g>
<!-- N_4&#45;&gt;N_5 -->
<g id="edge9" class="edge">
<title>N_4&#45;&gt;N_5</title>
<path fill="none" stroke="black" d="M1285.27,-131.83C1293.73,-131.76 1302.32,-131.74 1310.87,-131.76"/>
<polygon fill="black" stroke="black" points="1310.86,-135.26 1320.88,-131.8 1310.89,-128.26 1310.86,-135.26"/>
</g>
<!-- N_5&#45;&gt;N_4 -->
<g id="edge10" class="edge">
<title>N_5&#45;&gt;N_4</title>
<path fill="none" stroke="black" d="M1320.88,-145.2C1312.47,-145.25 1303.97,-145.26 1295.53,-145.23"/>
<polygon fill="black" stroke="black" points="1295.29,-141.73 1285.27,-145.17 1295.25,-148.73 1295.29,-141.73"/>
</g>
<!-- N_6 -->
<g id="node7" class="node">
<title>N_6</title>
<polygon fill="none" stroke="black" points="1581,-74.5 1581,-202.5 1830,-202.5 1830,-74.5 1581,-74.5"/>
<text text-anchor="middle" x="1705.5" y="-187.3" font-family="Times New Roman,serif" font-size="14.00">Carnet: 201704186</text>
<text text-anchor="middle" x="1705.5" y="-172.3" font-family="Times New Roman,serif" font-size="14.00">Dpi: 4778315315575</text>
<text text-anchor="middle" x="1705.5" y="-157.3" font-family="Times New Roman,serif" font-size="14.00">Nombre: Berta Carrasco</text>
<text text-anchor="middle" x="1705.5" y="-142.3" font-family="Times New Roman,serif" font-size="14.00">Carrera: Ingenieria Ambiental</text>
<text text-anchor="middle" x="1705.5" y="-127.3" font-family="Times New Roman,serif" font-size="14.00">Correo: carmen.montenegro@yahoo.com</text>
<text text-anchor="middle" x="1705.5" y="-112.3" font-family="Times New Roman,serif" font-size="14.00">Password: gayahizatu</text>
<text text-anchor="middle" x="1705.5" y="-97.3" font-family="Times New Roman,serif" font-size="14.00">Creditos: 210</text>
<text text-anchor="middle" x="1705.5" y="-82.3" font-family="Times New Roman,serif" font-size="14.00">Edad: 22</text>
</g>
<!-- N_5&#45;&gt;N_6 -->
<g id="edge11" class="edge">
<title>N_5&#45;&gt;N_6</title>
<path fill="none" stroke="black" d="M1545.19,-131.85C1553.68,-131.78 1562.29,-131.75 1570.9,-131.75"/>
<polygon fill="black" stroke="black" points="1570.98,-135.25 1580.99,-131.77 1570.99,-128.25 1570.98,-135.25"/>
</g>
<!-- N_6&#45;&gt;N_5 -->
<g id="edge12" class="edge">
<title>N_6&#45;&gt;N_5</title>
<path fill="none" stroke="black" d="M1580.99,-145.23C1572.41,-145.26 1563.77,-145.26 1555.2,-145.22"/>
<polygon fill="black" stroke="black" points="1555.22,-141.72 1545.19,-145.15 1555.17,-148.72 1555.22,-141.72"/>
</g>
<!-- N_7 -->
<g id="node8" class="node">
<title>N_7</title>
<polygon fill="none" stroke="black" points="1866,-74.5 1866,-202.5 2053,-202.5 2053,-74.5 1866,-74.5"/>
<text text-anchor="middle" x="1959.5" y="-187.3" font-family="Times New Roman,serif" font-size="14.00">Carnet: 202000786</text>
<text text-anchor="middle" x="1959.5" y="-172.3" font-family="Times New Roman,serif" font-size="14.00">Dpi: 7382344774121</text>
<text text-anchor="middle" x="1959.5" y="-157.3" font-family="Times New Roman,serif" font-size="14.00">Nombre: Lola Delapaz</text>
<text text-anchor="middle" x="1959.5" y="-142.3" font-family="Times New Roman,serif" font-size="14.00">Carrera: Ingenieria Quimica</text>
<text text-anchor="middle" x="1959.5" y="-127.3" font-family="Times New Roman,serif" font-size="14.00">Correo: adriana56@gmail.com</text>
<text text-anchor="middle" x="1959.5" y="-112.3" font-family="Times New Roman,serif" font-size="14.00">Password: hujocikimi</text>
<text text-anchor="middle" x="1959.5" y="-97.3" font-family="Times New Roman,serif" font-size="14.00">Creditos: 45</text>
<text text-anchor="middle" x="1959.5" y="-82.3" font-family="Times New Roman,serif" font-size="14.00">Edad: 19</text>
</g>
<!-- N_6&#45;&gt;N_7 -->
<g id="edge13" class="edge">
<title>N_6&#45;&gt;N_7</title>
<path fill="none" stroke="black" d="M1830.29,-131.75C1838.78,-131.74 1847.29,-131.78 1855.66,-131.85"/>
<polygon fill="black" stroke="black" points="1855.74,-135.35 1865.78,-131.96 1855.82,-128.35 1855.74,-135.35"/>
</g>
<!-- N_7&#45;&gt;N_6 -->
<g id="edge14" class="edge">
<title>N_7&#45;&gt;N_6</title>
<path fill="none" stroke="black" d="M1865.78,-145.04C1857.47,-145.15 1848.94,-145.21 1840.36,-145.24"/>
<polygon fill="black" stroke="black" points="1840.28,-141.74 1830.29,-145.25 1840.29,-148.74 1840.28,-141.74"/>
</g>
<!-- N_8 -->
<g id="node9" class="node">
<title>N_8</title>
<polygon fill="none" stroke="black" points="2089,-74.5 2089,-202.5 2334,-202.5 2334,-74.5 2089,-74.5"/>
<text text-anchor="middle" x="2211.5" y="-187.3" font-family="Times New Roman,serif" font-size="14.00">Carnet: 201611446</text>
<text text-anchor="middle" x="2211.5" y="-172.3" font-family="Times New Roman,serif" font-size="14.00">Dpi: 2511893949443</text>
<text text-anchor="middle" x="2211.5" y="-157.3" font-family="Times New Roman,serif" font-size="14.00">Nombre: Sonia Arteaga</text>
<text text-anchor="middle" x="2211.5" y="-142.3" font-family="Times New Roman,serif" font-size="14.00">Carrera: Ingenieria Mecanica Industrial</text>
<text text-anchor="middle" x="2211.5" y="-127.3" font-family="Times New Roman,serif" font-size="14.00">Correo: esperanza.meza41@hotmail.com</text>
<text text-anchor="middle" x="2211.5" y="-112.3" font-family="Times New Roman,serif" font-size="14.00">Password: rezutafila</text>
<text text-anchor="middle" x="2211.5" y="-97.3" font-family="Times New Roman,serif" font-size="14.00">Creditos: 195</text>
<text text-anchor="middle" x="2211.5" y="-82.3" font-family="Times New Roman,serif" font-size="14.00">Edad: 23</text>
</g>
<!-- N_7&#45;&gt;N_8 -->
<g id="edge15" class="edge">
<title>N_7&#45;&gt;N_8</title>
<path fill="none" stroke="black" d="M2053.24,-131.95C2061.53,-131.85 2070.02,-131.78 2078.55,-131.76"/>
<polygon fill="black" stroke="black" points="2078.59,-135.26 2088.59,-131.75 2078.58,-128.26 2078.59,-135.26"/>
</g>
<!-- N_8&#45;&gt;N_7 -->
<g id="edge16" class="edge">
<title>N_8&#45;&gt;N_7</title>
<path fill="none" stroke="black" d="M2088.59,-145.25C2080.13,-145.26 2071.66,-145.23 2063.33,-145.15"/>
<polygon fill="black" stroke="black" points="2063.27,-141.65 2053.24,-145.05 2063.2,-148.65 2063.27,-141.65"/>
</g>
<!-- N_9 -->
<g id="node10" class="node">
<title>N_9</title>
<polygon fill="none" stroke="black" points="2370,-74.5 2370,-202.5 2604,-202.5 2604,-74.5 2370,-74.5"/>
<text text-anchor="middle" x="2487" y="-187.3" font-family="Times New Roman,serif" font-size="14.00">Carnet: 201819852</text>
<text text-anchor="middle" x="2487" y="-172.3" font-family="Times New Roman,serif" font-size="14.00">Dpi: 3423442386381</text>
<text text-anchor="middle" x="2487" y="-157.3" font-family="Times New Roman,serif" font-size="14.00">Nombre: Benjamin Asencio</text>
<text text-anchor="middle" x="2487" y="-142.3" font-family="Times New Roman,serif" font-size="14.00">Carrera: Ingenieria Mecanica Electrica</text>
<text text-anchor="middle" x="2487" y="-127.3" font-family="Times New Roman,serif" font-size="14.00">Correo: horacio_tejada15@yahoo.com</text>
<text text-anchor="middle" x="2487" y="-112.3" font-family="Times New Roman,serif" font-size="14.00">Password: runoqozepo</text>
<text text-anchor="middle" x="2487" y="-97.3" font-family="Times New Roman,serif" font-size="14.00">Creditos: 117</text>
<text text-anchor="middle" x="2487" y="-82.3" font-family="Times New Roman,serif" font-size="14.00">Edad: 20</text>
</g>
<!-- N_8&#45;&gt;N_9 -->
<g id="edge17" class="edge">
<title>N_8&#45;&gt;N_9</title>
<path fill="none" stroke="black" d="M2334.05,-131.79C2342.47,-131.75 2350.97,-131.74 2359.41,-131.77"/>
<polygon fill="black" stroke="black" points="2359.66,-135.27 2369.68,-131.82 2359.7,-128.27 2359.66,-135.27"/>
</g>
<!-- N_9&#45;&gt;N_8 -->
<g id="edge18" class="edge">
<title>N_9&#45;&gt;N_8</title>
<path fill="none" stroke="black" d="M2369.68,-145.18C2361.21,-145.24 2352.63,-145.26 2344.07,-145.25"/>
<polygon fill="black" stroke="black" points="2344.07,-141.75 2334.05,-145.21 2344.04,-148.75 2344.07,-141.75"/>
</g>
<!-- N_9&#45;&gt;N_10 -->
<g id="edge19" class="edge">
<title>N_9&#45;&gt;N_10</title>
<path fill="none" stroke="black" d="M2604.04,-110.34C2612.49,-108.72 2621.06,-107.11 2629.61,-105.54"/>
<polygon fill="black" stroke="black" points="2630.42,-108.95 2639.63,-103.71 2629.16,-102.06 2630.42,-108.95"/>
</g>
<!-- N_10&#45;&gt;N_0 -->
<g id="edge22" class="edge">
<title>N_10&#45;&gt;N_0</title>
<path fill="none" stroke="black" d="M2639.96,-77.75C2627.83,-76.22 2615.68,-74.76 2604,-73.5 2430.56,-54.82 2386.94,-45.5 2212.5,-45.5 675.5,-45.5 675.5,-45.5 675.5,-45.5 501.5,-45.5 458,-54.85 285,-73.5 276.51,-74.42 267.78,-75.44 258.99,-76.52"/>
<polygon fill="black" stroke="black" points="258.53,-73.05 249.04,-77.75 259.39,-79.99 258.53,-73.05"/>
</g>
<!-- N_10&#45;&gt;N_9 -->
<g id="edge20" class="edge">
<title>N_10&#45;&gt;N_9</title>
<path fill="none" stroke="black" d="M2639.63,-117.15C2631.11,-118.76 2622.53,-120.36 2614.01,-121.9"/>
<polygon fill="black" stroke="black" points="2613.26,-118.48 2604.04,-123.69 2614.5,-125.37 2613.26,-118.48"/>
</g>
</g>
</svg>
